<svg width="6" height="12" viewBox="0 0 6 12" fill="none" xmlns="http://www.w3.org/2000/svg">
<path d="M4.28011 7.98584C4.28011 7.65641 4.16374 7.37891 3.93099 7.15332C3.70182 6.92773 3.31331 6.72363 2.76546 6.54102C2.00277 6.30827 1.44596 6.0057 1.09505 5.6333C0.747721 5.25732 0.574056 4.78109 0.574056 4.20459C0.574056 3.61735 0.744141 3.13574 1.08431 2.75977C1.42806 2.38379 1.89893 2.15999 2.49691 2.08838V0.912109H3.2972V2.09375C3.89876 2.17611 4.36605 2.42855 4.69906 2.85107C5.03564 3.2736 5.20394 3.85189 5.20394 4.58594H4.21566C4.21566 4.08105 4.0957 3.68001 3.85579 3.38281C3.61589 3.08561 3.29183 2.93701 2.88363 2.93701C2.45752 2.93701 2.13167 3.04801 1.90609 3.27002C1.6805 3.48844 1.56771 3.7946 1.56771 4.18848C1.56771 4.55371 1.68587 4.84554 1.9222 5.06396C2.16211 5.27881 2.5542 5.47575 3.09847 5.65479C3.64632 5.83024 4.07243 6.02539 4.37679 6.24023C4.68473 6.4515 4.91032 6.69857 5.05355 6.98145C5.20036 7.26432 5.27376 7.59554 5.27376 7.9751C5.27376 8.58024 5.09115 9.06722 4.72591 9.43604C4.36426 9.80485 3.85579 10.0233 3.20052 10.0913V11.1172H2.4056V10.0913C1.73958 10.0304 1.2168 9.79411 0.83724 9.38232C0.461263 8.96696 0.273275 8.40479 0.273275 7.6958H1.26693C1.26693 8.19352 1.39762 8.57666 1.65902 8.84521C1.92041 9.11377 2.29102 9.24805 2.77083 9.24805C3.23991 9.24805 3.60872 9.13525 3.87728 8.90967C4.14583 8.68408 4.28011 8.37614 4.28011 7.98584Z" fill="white"/>
</svg>
